<svg width="40" height="40" viewBox="0 0 40 40" fill="none" xmlns="http://www.w3.org/2000/svg">
    <path d="M16.6667 8.33333C16.6667 7.44928 17.0179 6.60143 17.6431 5.97631C18.2682 5.35119 19.116 5 20.0001 5C20.8841 5 21.732 5.35119 22.3571 5.97631C22.9822 6.60143 23.3334 7.44928 23.3334 8.33333C25.2474 9.23838 26.8791 10.6472 28.0535 12.4088C29.2279 14.1705 29.9008 16.2185 30.0001 18.3333V23.3333C30.1255 24.3695 30.4925 25.3618 31.0714 26.2302C31.6504 27.0987 32.4252 27.819 33.3334 28.3333H6.66675C7.57498 27.819 8.34976 27.0987 8.92873 26.2302C9.50769 25.3618 9.87466 24.3695 10.0001 23.3333V18.3333C10.0993 16.2185 10.7722 14.1705 11.9467 12.4088C13.1211 10.6472 14.7527 9.23838 16.6667 8.33333Z"
          stroke="white" stroke-width="3" stroke-linecap="round" stroke-linejoin="round"/>
    <path d="M15 28.3333V30C15 31.3261 15.5268 32.5978 16.4645 33.5355C17.4021 34.4732 18.6739 35 20 35C21.3261 35 22.5979 34.4732 23.5355 33.5355C24.4732 32.5978 25 31.3261 25 30V28.3333"
          stroke="white" stroke-width="3" stroke-linecap="round" stroke-linejoin="round"/>
    <path d="M34.9999 11.2117C33.9067 8.83376 32.3192 6.71616 30.3433 5" stroke="white" stroke-width="3"
          stroke-linecap="round" stroke-linejoin="round"/>
    <path d="M5 11.2117C6.09225 8.83407 7.67858 6.71649 9.65333 5" stroke="white" stroke-width="3"
          stroke-linecap="round" stroke-linejoin="round"/>
</svg>
