<svg width="24" height="24" viewBox="0 0 24 24" fill="none" xmlns="http://www.w3.org/2000/svg">
  <path d="M11.3305 2.02148C13.7097 2.02148 15.6516 3.89542 15.7607 6.24772L15.7655 6.45648V7.38948C15.7655 7.8037 15.4297 8.13948 15.0155 8.13948C14.6358 8.13948 14.322 7.85733 14.2723 7.49125L14.2655 7.38948V6.45648C14.2655 4.89358 13.0435 3.61575 11.5029 3.52647L11.3305 3.52148H6.45548C4.89343 3.52148 3.61574 4.74362 3.52647 6.28406L3.52148 6.45648V17.5865C3.52148 19.1493 4.74339 20.4272 6.28314 20.5165L6.45548 20.5215H11.3405C12.8978 20.5215 14.1715 19.3039 14.2605 17.7693L14.2655 17.5975V16.6545C14.2655 16.2403 14.6013 15.9045 15.0155 15.9045C15.3952 15.9045 15.709 16.1866 15.7586 16.5527L15.7655 16.6545V17.5975C15.7655 19.9687 13.8987 21.9046 11.5548 22.0164L11.3405 22.0215H6.45548C4.07704 22.0215 2.13533 20.1474 2.02631 17.7952L2.02148 17.5865V6.45648C2.02148 4.07743 3.89524 2.13535 6.24679 2.02631L6.45548 2.02148H11.3305ZM19.3256 8.50234L19.4098 8.57478L22.3378 11.4898C22.3642 11.5159 22.3873 11.5426 22.4085 11.5707L22.3378 11.4898C22.3684 11.5202 22.3958 11.5526 22.42 11.5865C22.4371 11.6103 22.4528 11.6354 22.4671 11.6614C22.4697 11.6665 22.4724 11.6715 22.4749 11.6764C22.4876 11.7004 22.4988 11.7253 22.5087 11.7508C22.5128 11.762 22.5168 11.7733 22.5206 11.7847C22.5279 11.8058 22.534 11.8274 22.5392 11.8494C22.5416 11.8612 22.544 11.8729 22.5462 11.8846C22.5503 11.905 22.5533 11.9261 22.5554 11.9474C22.5565 11.9623 22.5575 11.977 22.5581 11.9917C22.5588 12.0016 22.559 12.0115 22.559 12.0214L22.5582 12.0497C22.5576 12.0651 22.5565 12.0805 22.555 12.0958L22.559 12.0214C22.559 12.0682 22.5547 12.1141 22.5465 12.1585C22.544 12.1696 22.5416 12.1814 22.5389 12.193C22.5338 12.2162 22.5274 12.2387 22.52 12.2607C22.5162 12.2709 22.5125 12.2813 22.5085 12.2915C22.4992 12.3164 22.4884 12.3405 22.4764 12.3639C22.4734 12.3692 22.4703 12.3751 22.467 12.381C22.4326 12.4443 22.3895 12.5015 22.3393 12.5517L22.3379 12.5527L19.4099 15.4687C19.1164 15.761 18.6416 15.76 18.3493 15.4665C18.0836 15.1997 18.0602 14.783 18.2787 14.4898L18.3514 14.4059L19.9905 12.7705L9.76799 12.7714C9.35377 12.7714 9.01799 12.4356 9.01799 12.0214C9.01799 11.6417 9.30014 11.3279 9.66621 11.2782L9.76799 11.2714L19.9925 11.2705L18.3515 9.63779C18.0847 9.37212 18.0595 8.95551 18.2767 8.66142L18.3492 8.57714C18.6149 8.31028 19.0315 8.28514 19.3256 8.50234Z" fill="#EA7C69"/>
</svg>
