<svg width="32" height="34" viewBox="0 0 32 34" fill="none" xmlns="http://www.w3.org/2000/svg">
<path d="M12.2172 1.6473C14.3339 -0.0343682 17.3006 -0.101035 19.4822 1.4473L19.7506 1.6473L29.8989 9.76563C31.0156 10.6306 31.7006 11.9156 31.8172 13.314L31.8339 13.649V27.164C31.8339 30.6473 29.0822 33.4806 25.6339 33.664H22.3172C20.7322 33.6323 19.4506 32.399 19.3339 30.849L19.3172 30.614V25.849C19.3172 25.3306 18.9322 24.899 18.4172 24.814L18.2672 24.7973H13.8156C13.2839 24.814 12.8506 25.1973 12.7839 25.6973L12.7672 25.849V30.599C12.7672 30.6973 12.7489 30.814 12.7339 30.8973L12.7172 30.9323L12.6989 31.0473C12.5006 32.4656 11.3339 33.5473 9.8839 33.649L9.66724 33.664H6.6839C3.20057 33.664 0.35057 30.9323 0.167236 27.4973L0.167236 13.649C0.182236 12.2306 0.80057 10.914 1.8339 9.9973L12.2172 1.6473ZM18.3006 3.46396C17.0339 2.4473 15.2339 2.39897 13.9006 3.28063L13.6489 3.46396L3.51557 11.6323C2.9339 12.064 2.5839 12.714 2.50057 13.3973L2.48224 13.664L2.48224 27.164C2.48224 29.3806 4.21557 31.1973 6.41724 31.3306H9.66724C10.0339 31.3306 10.3506 31.0823 10.3989 30.7323L10.4339 30.4323L10.4506 30.3473V25.849C10.4506 24.0656 11.8172 22.6156 13.5672 22.4806H18.2672C20.0489 22.4806 21.4989 23.849 21.6339 25.599V30.614C21.6339 30.964 21.8839 31.2656 22.2172 31.3306H25.3156C27.5489 31.3306 29.3656 29.6156 29.4989 27.4306L29.5172 27.164V13.664C29.4989 12.949 29.2006 12.2806 28.6839 11.7823L28.4672 11.5973L18.3006 3.46396Z" fill="#EA7C69"/>
</svg>
