<svg width="20" height="20" viewBox="0 0 20 20" fill="none" xmlns="http://www.w3.org/2000/svg">
<path d="M15.7325 7.26552L15.8153 7.26665C16.1229 7.29208 16.3587 7.54747 16.375 7.85488L16.3671 8.02629L16.105 11.2357L15.8301 14.3676C15.7719 14.9929 15.7198 15.5202 15.6749 15.9354C15.5187 17.3821 14.5796 18.2768 13.1638 18.3033C10.9578 18.344 8.83731 18.3436 6.7781 18.2991C5.40331 18.2702 4.47805 17.3659 4.32462 15.9412L4.21858 14.8916L4.03328 12.8557L3.84347 10.6216L3.62643 7.93973C3.59946 7.59565 3.84959 7.2943 4.18512 7.26664C4.49269 7.24128 4.76525 7.4547 4.82932 7.75548L4.85426 8.00128L5.05805 10.5154L5.28057 13.1214C5.38038 14.2495 5.46695 15.1625 5.53622 15.8038C5.62365 16.6157 6.05115 17.0335 6.80343 17.0493C8.84654 17.0935 10.9512 17.0939 13.1417 17.0534C13.9398 17.0385 14.374 16.6248 14.4633 15.7976L14.5689 14.7536C14.5998 14.4319 14.6328 14.0767 14.6678 13.6909L14.8905 11.128L15.1588 7.83942C15.1836 7.52402 15.4327 7.28226 15.7325 7.26552ZM3.10949 5.82416C2.77288 5.82416 2.5 5.54432 2.5 5.19913C2.5 4.88271 2.72929 4.6212 3.02679 4.57982L3.10949 4.57411H5.76476C6.0803 4.57411 6.35654 4.3659 6.45535 4.06591L6.47953 3.97328L6.68587 2.92094C6.86759 2.22398 7.45767 1.72775 8.14916 1.67178L8.27993 1.6665H11.7199C12.4229 1.6665 13.0436 2.12173 13.2826 2.82516L13.3228 2.95991L13.5203 3.97303C13.5822 4.29044 13.8354 4.5275 14.1417 4.56798L14.2351 4.57411H16.8905C17.2271 4.57411 17.5 4.85394 17.5 5.19913C17.5 5.51556 17.2707 5.77706 16.9732 5.81845L16.8905 5.82416H3.10949ZM11.7199 2.91655H8.27993C8.10892 2.91655 7.95691 3.01919 7.89377 3.14819L7.87235 3.20487L7.67483 4.21849C7.65067 4.34221 7.61566 4.46134 7.57093 4.57493L12.429 4.57509C12.4011 4.50422 12.377 4.43119 12.3569 4.35624L12.325 4.21824L12.1364 3.24384C12.0923 3.07477 11.9561 2.95099 11.7918 2.92269L11.7199 2.91655Z" fill="#FF7CA3"/>
</svg>
