<svg width="68" height="48" viewBox="0 0 68 48" fill="none" xmlns="http://www.w3.org/2000/svg">
<rect x="0.25" y="0.25" width="67.5" height="47.5" rx="1.75" fill="white" stroke="#F5F5F5" stroke-width="0.5"/>
<mask id="mask0_267_536" style="mask-type:luminance" maskUnits="userSpaceOnUse" x="0" y="0" width="68" height="48">
<rect x="0.25" y="0.25" width="67.5" height="47.5" rx="1.75" fill="white" stroke="white" stroke-width="0.5"/>
</mask>
<g mask="url(#mask0_267_536)">
<path fill-rule="evenodd" clip-rule="evenodd" d="M0 16H68V0H0V16Z" fill="#04AAC8"/>
<path fill-rule="evenodd" clip-rule="evenodd" d="M0 48H68V32H0V48Z" fill="#23C840"/>
<path fill-rule="evenodd" clip-rule="evenodd" d="M11.3337 12.8C12.3325 12.8 13.2609 12.502 14.0329 11.9912C13.9434 11.997 13.8532 12 13.7623 12C11.5268 12 9.71466 10.2091 9.71466 7.99995C9.71466 5.79081 11.5268 3.99995 13.7623 3.99995C13.8532 3.99995 13.9434 4.00291 14.0329 4.00875C13.2609 3.49789 12.3325 3.19995 11.3337 3.19995C8.65118 3.19995 6.47656 5.34898 6.47656 7.99995C6.47656 10.6509 8.65118 12.8 11.3337 12.8ZM19.4289 11.2C19.4289 12.0836 18.7041 12.8 17.8099 12.8C16.9157 12.8 16.1908 12.0836 16.1908 11.2C16.1908 10.3163 16.9157 9.59995 17.8099 9.59995C18.7041 9.59995 19.4289 10.3163 19.4289 11.2ZM24.2861 6.39995C25.1803 6.39995 25.9051 5.68361 25.9051 4.79995C25.9051 3.9163 25.1803 3.19995 24.2861 3.19995C23.3919 3.19995 22.667 3.9163 22.667 4.79995C22.667 5.68361 23.3919 6.39995 24.2861 6.39995ZM32.3813 4.79995C32.3813 5.68361 31.6565 6.39995 30.7623 6.39995C29.8681 6.39995 29.1432 5.68361 29.1432 4.79995C29.1432 3.9163 29.8681 3.19995 30.7623 3.19995C31.6565 3.19995 32.3813 3.9163 32.3813 4.79995ZM30.7623 12.8C31.6565 12.8 32.3813 12.0836 32.3813 11.2C32.3813 10.3163 31.6565 9.59995 30.7623 9.59995C29.8681 9.59995 29.1432 10.3163 29.1432 11.2C29.1432 12.0836 29.8681 12.8 30.7623 12.8ZM25.9051 11.2C25.9051 12.0836 25.1803 12.8 24.2861 12.8C23.3919 12.8 22.667 12.0836 22.667 11.2C22.667 10.3163 23.3919 9.59995 24.2861 9.59995C25.1803 9.59995 25.9051 10.3163 25.9051 11.2Z" fill="white"/>
</g>
</svg>
